<svg width="912" height="578" viewBox="0 0 912 578" fill="none" xmlns="http://www.w3.org/2000/svg" rdf="http://www.w3.org/1999/02/22-rdf-syntax-ns#"><g clip-path="url(#clip0_102_407)">
<path id='path-1' className='map-image' d="M561.333 321.991C561.333 321.991 561.48 321.367 562.307 320.642C561.918 318.923 562.007 317.876 562.007 317.876C560.994 320.474 561.333 321.991 561.333 321.991Z" stroke="white" stroke-miterlimit="10"></path>
<path  id='path-2' className='map-image'  d="M586.885 428.95C586.885 428.95 584.622 429.908 583.326 431.83C582.033 433.748 580.09 437.587 580.09 437.587C580.09 437.587 570.71 428.31 569.417 427.671C568.124 427.032 560.683 425.753 559.067 427.671C557.451 429.589 555.185 434.706 552.922 435.988C550.659 437.267 549.686 436.308 547.424 434.07C545.161 431.833 541.602 430.231 540.956 433.111C540.309 435.991 539.663 437.909 537.72 438.229C535.781 438.549 536.104 435.349 537.074 432.792C538.043 430.234 535.457 429.272 531.252 432.472C527.047 435.672 521.549 440.47 518.963 433.751C516.377 427.035 513.787 423.835 513.787 423.835L503.114 427.674L479.822 426.715C477.236 431.193 468.172 435.032 463.967 437.59C459.762 440.147 462.015 443.986 461.045 447.186C460.076 450.385 451.323 450.705 446.794 450.705C443.27 450.705 440.113 457.294 438.886 460.214L452.657 475.015L473.034 483.971L493.411 500.283C493.411 500.283 500.525 505.081 501.821 506.04C503.114 506.999 508.289 509.56 511.848 508.92C515.407 508.281 520.582 505.401 520.582 505.401L532.225 508.92C532.225 508.92 542.898 517.557 543.868 518.516C544.838 519.475 550.659 519.795 553.895 520.434C554.984 520.648 556.148 521.083 557.209 521.564C559.067 518.78 562.036 514.904 563.922 515.317C566.834 515.956 576.535 516.595 577.831 512.759C579.127 508.923 577.831 501.565 579.77 499.967C581.71 498.368 586.561 500.926 588.181 498.368C589.797 495.811 591.093 488.772 591.093 488.772C591.093 488.772 588.181 481.097 591.093 480.775C594.005 480.452 602.09 479.176 602.09 479.176L603.706 467.343L607.911 465.425C607.911 465.425 613.086 470.223 615.026 467.343C616.965 464.463 616.319 461.266 615.026 460.307C613.733 459.348 611.144 458.07 611.144 458.07L616.818 453.259L615.989 452.952L615.013 445.597L598.183 440.159V435.681L599.008 435.156L598.208 433.443L586.888 428.965L586.885 428.95Z" fill="#9CD9FF" stroke="white" stroke-miterlimit="10"></path>
<path d="M614.999 459.791C616.307 460.764 616.961 464.008 614.999 466.925C613.037 469.841 607.802 464.98 607.802 464.98L603.548 466.925L601.913 478.922C601.913 478.922 593.732 480.219 590.79 480.543C587.847 480.867 590.79 488.651 590.79 488.651C590.79 488.651 589.482 495.784 587.844 498.38C586.209 500.973 581.301 498.38 579.336 500.001C577.374 501.621 578.682 509.081 577.374 512.97C576.066 516.859 566.25 516.214 563.304 515.563C561.396 515.145 558.396 519.071 556.514 521.897C558.631 522.854 560.358 523.996 560.358 523.996L563.301 528.536L556.098 538.589L555.107 557.396L559.669 563.233L556.688 563.557V568.317H559.704C559.704 568.317 565.593 569.34 569.52 569.016C573.447 568.692 579.009 565.501 579.009 565.501L584.244 567.446L587.19 568.418L589.478 569.714L591.44 571.335L592.748 573.279L596.021 578.144C596.021 578.144 602.237 577.172 605.51 574.9C608.783 572.631 609.764 573.279 609.764 573.279L613.037 575.872L616.637 573.604L626.126 576.196L628.415 574.576L629.395 553.173C629.395 553.173 634.957 546.04 637.246 543.444C639.535 540.848 644.443 525.934 644.443 525.934L650.986 524.314C650.986 524.314 655.567 511.992 655.894 507.451C656.221 502.911 646.078 497.722 646.078 497.722L639.208 484.753L638.881 466.594C641.827 466.594 642.808 464.326 642.808 461.406C642.808 458.486 637.9 453.624 637.9 453.624L623.83 455.245L616.815 452.639L611.075 457.516C611.075 457.516 613.691 458.813 615.002 459.785L614.999 459.791Z" fill="#9CD9FF" stroke="white" stroke-miterlimit="10"></path>
<path d="M332.95 336.698L323.022 321.807L319.508 323.399L315.573 311.724L303.117 297.129L286.399 293.237L279.516 300.695C279.516 300.695 277.878 298.426 276.237 296.154C274.599 293.885 274.271 292.585 272.302 292.909C270.334 293.234 265.747 286.424 262.795 285.451C259.843 284.479 250.012 274.101 244.112 267.615C238.211 261.13 237.228 259.182 236.901 257.237C236.573 255.292 236.573 252.048 236.573 252.048C236.573 252.048 231.656 249.779 229.362 247.831C227.069 245.886 227.397 245.562 227.069 242.642C226.742 239.722 224.448 235.508 218.545 231.94C214.575 229.542 211.792 227.584 208.5 227.348L217.015 236.373L214.174 239.618L213.955 247.617C211.334 247.617 210.24 249.996 212.206 251.293C214.171 252.589 220.51 254.537 220.51 254.537L227.721 264.484L219.855 262.753L217.234 266.86L220.949 274.642L215.485 281.776L214.61 289.775L235.151 302.964L269.243 303.612L277.767 308.584C277.767 308.584 283.012 303.395 283.448 302.746C283.883 302.098 284.978 299.936 286.288 298.854C287.599 297.771 297.433 302.746 298.089 302.96C298.744 303.178 300.71 305.122 300.71 305.122C300.71 305.122 303.114 306.853 307.485 310.743C311.855 314.635 311.963 317.876 312.294 318.852C312.621 319.824 314.915 327.61 314.915 327.61L318.849 340.257L322.494 350.795L332.291 347.066L332.946 336.688L332.95 336.698Z" fill="#9CD9FF" stroke="white" stroke-miterlimit="10"></path>
<path d="M446.602 450.8C451.15 450.8 459.939 450.473 460.913 447.206C461.887 443.938 459.624 440.021 463.847 437.407C468.07 434.792 477.168 430.875 479.768 426.302L469.702 422.055C469.702 422.055 473.601 416.176 472.951 414.544C472.302 412.912 471.328 411.933 465.158 412.586C458.987 413.239 452.492 408.992 452.492 408.992L453.791 403.44L449.243 397.234L450.217 391.356C450.217 391.356 461.26 388.744 461.584 383.189C461.909 377.636 460.131 376.331 461.105 375.025C462.079 373.719 464.525 370.778 464.525 370.778V362.285L473.528 365.879C473.528 365.879 481.035 360.653 482.009 359.673C482.982 358.694 483.326 355.427 485.598 354.774C487.87 354.121 490.804 351.833 491.778 349.874C492.752 347.916 492.434 346.281 491.457 345.301C490.48 344.322 482.689 341.055 481.066 341.707C479.443 342.36 474.896 349.545 469.375 347.586C463.853 345.628 454.758 336.808 454.434 329.623C454.109 322.439 456.381 319.498 453.784 317.213C451.188 314.928 448.588 316.234 448.263 318.519C447.939 320.804 447.289 324.071 447.289 324.071L433.647 323.745L432.998 336.808L414.486 336.482C414.486 336.482 413.512 334.849 415.785 332.235C418.057 329.623 419.034 329.294 418.057 327.009C417.083 324.724 415.785 323.089 413.509 324.724C411.234 326.359 400.844 333.544 402.791 338.114C404.739 342.684 407.339 347.913 403.44 347.913C399.542 347.913 394.67 347.26 394.345 343.34C394.021 339.419 394.345 336.155 394.345 336.155L366.739 319.498L359.919 326.356C359.919 326.356 357.323 325.05 357.323 323.415C357.323 321.78 356.349 311.984 356.349 311.984C356.349 311.984 348.231 306.105 347.903 301.206C347.578 296.306 347.254 290.101 347.254 290.101L324.273 297.26C329.58 305.002 334.264 315.248 334.264 315.248L322.156 320.829L331.991 335.826L331.342 346.277L321.636 350.033L322.247 351.83L331.991 360.323L336.539 386.453L394.676 431.851L403.771 443.935L427.155 461.898L437.548 459.287L438.661 460.504C439.893 457.521 443.06 450.793 446.602 450.793V450.8Z" fill="#9CD9FF" stroke="white" stroke-miterlimit="10"></path>
<path d="M227.654 241.442C227.979 244.355 227.654 244.678 229.925 246.618C232.195 248.558 237.064 250.824 237.064 250.824C237.064 250.824 237.064 254.06 237.388 256C237.712 257.939 238.685 259.882 244.527 266.351C250.369 272.82 260.105 283.171 263.025 284.141C265.947 285.111 270.488 291.903 272.437 291.58C274.387 291.257 274.708 292.55 276.333 294.816C277.954 297.079 279.579 299.345 279.579 299.345L286.394 291.906L302.946 295.789L315.277 310.346L319.173 321.991L322.652 320.403L334.751 314.876C334.751 314.876 330.072 304.728 324.769 297.06C324.312 296.401 323.852 295.758 323.389 295.142C317.548 287.38 313.004 276.706 307.162 271.853C301.321 267.001 303.267 258.592 303.267 258.592L315.598 250.18C315.598 250.18 311.054 231.744 310.081 224.948C309.108 218.153 311.379 214.274 315.598 210.068C319.818 205.862 325.984 198.1 330.204 190.011C334.424 181.926 348.377 173.191 348.377 173.191L345.455 168.339C345.455 168.339 341.559 167.692 337.015 167.692C332.471 167.692 331.498 163.809 326.63 158.957C323.928 156.264 321.827 152.278 320.492 149.261C317.831 146.069 279.664 100.266 277.315 95.5832C274.881 90.7307 275.854 85.8783 275.854 85.8783L158.548 0L30.0372 28.1386L5.88379 279.399L58.4608 288.67L67.549 280.475C67.549 280.475 63.4394 280.475 60.41 269.477C57.3806 258.479 59.7613 244.892 59.7613 244.892C59.7613 244.892 60.8446 242.735 66.4688 239.716C72.0931 236.697 86.8056 231.091 92.2157 230.658C97.6258 230.228 106.711 227.855 106.711 227.855L106.062 223.972C106.062 223.972 107.145 223.972 110.389 218.796C113.636 213.621 110.82 210.385 110.82 210.385L118.825 207.582C118.825 207.582 126.182 211.894 128.78 213.837C131.374 215.777 133.106 222.896 133.106 222.896L139.597 222.466L130.726 204.566L122.286 199.606L130.074 194.001L143.054 198.097L146.732 189.471L163.391 208.665L173.342 208.448L178.318 215.997L177.886 221.389L208.609 225.485L209.267 226.188C212.526 226.424 215.282 228.376 219.212 230.768C225.053 234.327 227.324 238.53 227.651 241.442H227.654Z" fill="#9CD9FF"></path>
<path d="M322.652 320.403L319.173 321.991L315.277 310.346L302.946 295.789L286.394 291.906L279.579 299.345C279.579 299.345 277.954 297.079 276.333 294.816C274.708 292.55 274.387 291.257 272.437 291.58C270.488 291.903 265.947 285.111 263.025 284.141C260.105 283.171 250.369 272.82 244.527 266.351C238.685 259.882 237.712 257.939 237.388 256C237.064 254.06 237.064 250.824 237.064 250.824C237.064 250.824 232.195 248.558 229.925 246.618C227.654 244.678 227.979 244.355 227.654 241.442H227.651C227.324 238.53 225.053 234.327 219.212 230.768C215.282 228.376 212.526 226.424 209.267 226.188L208.609 225.485L177.886 221.389L178.318 215.997L173.342 208.448L163.391 208.665L146.732 189.471L143.054 198.097L130.074 194.001L122.286 199.606L130.726 204.566L139.597 222.466L133.106 222.896C133.106 222.896 131.374 215.777 128.78 213.837C126.182 211.894 118.825 207.582 118.825 207.582L110.82 210.385C110.82 210.385 113.636 213.621 110.389 218.796C107.145 223.972 106.062 223.972 106.062 223.972L106.711 227.855C106.711 227.855 97.6258 230.228 92.2157 230.658C86.8056 231.091 72.0931 236.697 66.4688 239.716C60.8446 242.735 59.7613 244.892 59.7613 244.892C59.7613 244.892 57.3806 258.479 60.41 269.477C63.4394 280.475 67.549 280.475 67.549 280.475L58.4608 288.67L5.88379 279.399L30.0372 28.1386L158.548 0L275.854 85.8783C275.854 85.8783 274.881 90.7307 277.315 95.5832C279.664 100.266 317.831 146.069 320.492 149.261C321.827 152.278 323.928 156.264 326.63 158.957C331.498 163.809 332.471 167.692 337.015 167.692C341.559 167.692 345.455 168.339 345.455 168.339L348.377 173.191C348.377 173.191 334.424 181.926 330.204 190.011C325.984 198.1 319.818 205.862 315.598 210.068C311.379 214.274 309.108 218.153 310.081 224.948C311.054 231.744 315.598 250.18 315.598 250.18L303.267 258.592C303.267 258.592 301.321 267.001 307.162 271.853C313.004 276.706 317.548 287.38 323.389 295.142C323.852 295.758 324.312 296.401 324.769 297.06M322.652 320.403L322.419 320.051M322.652 320.403L334.751 314.876C334.751 314.876 330.072 304.728 324.769 297.06M324.769 297.06L324.69 297.085" fill="#9CD9FF" stroke="white" stroke-miterlimit="10"></path>
<path d="M336.282 167.605C340.843 167.605 344.753 168.255 344.753 168.255L347.686 173.128C347.686 173.128 333.677 181.901 329.445 190.022C325.209 198.145 319.02 205.941 314.785 210.165C310.549 214.389 308.27 218.286 309.247 225.11C310.224 231.935 314.785 250.452 314.785 250.452L302.407 258.9C302.407 258.9 300.454 267.349 306.317 272.219C312.18 277.089 316.741 287.814 322.605 295.609C323.069 296.227 323.531 296.873 323.989 297.535L347.038 290.414C347.038 290.414 347.363 296.587 347.689 301.46C348.015 306.334 356.16 312.181 356.16 312.181C356.16 312.181 357.137 321.928 357.137 323.552C357.137 325.175 359.741 326.477 359.741 326.477L366.581 319.655L394.27 336.224C394.27 336.224 393.945 339.474 394.27 343.371C394.596 347.27 399.482 347.919 403.392 347.919C407.302 347.919 404.695 342.721 402.741 338.172C400.788 333.623 411.212 326.477 413.491 324.854C415.77 323.23 417.076 324.854 418.052 327.126C419.029 329.399 418.052 329.724 415.773 332.325C413.494 334.922 414.471 336.549 414.471 336.549L433.038 336.874L433.689 323.88L447.372 324.204C447.372 324.204 448.023 320.954 448.349 318.681C448.674 316.409 451.279 315.107 453.887 317.383C456.494 319.659 454.212 322.581 454.538 329.727C454.863 336.874 463.985 345.647 469.523 347.595C475.061 349.543 479.619 342.396 481.25 341.747C482.878 341.098 490.694 344.345 491.671 345.322C492.648 346.299 492.97 347.919 491.993 349.871C491.017 351.822 488.074 354.095 485.795 354.744C483.516 355.394 483.172 358.644 482.195 359.618C481.218 360.592 473.689 365.79 473.689 365.79L464.659 362.215V370.663C464.659 370.663 462.206 373.589 461.229 374.888C460.252 376.186 462.035 377.485 461.71 383.008C461.384 388.531 450.308 391.132 450.308 391.132L449.332 396.979L453.893 403.152L452.591 408.674C452.591 408.674 459.105 412.899 465.294 412.249C471.483 411.6 472.46 412.574 473.111 414.197C473.762 415.821 469.852 421.668 469.852 421.668L479.948 425.893C479.948 425.893 485.492 413.548 482.884 409.973C480.279 406.398 470.506 403.476 475.067 401.85C479.628 400.223 483.864 401.525 483.864 401.525L484.84 396.327C484.84 396.327 492.986 402.499 493.963 397.625C494.939 392.752 495.916 381.057 495.916 381.057L508.619 389.83L509.271 384.632C509.271 384.632 514.483 387.229 517.742 387.557C521 387.882 525.558 387.557 525.558 387.557C525.558 387.557 524.907 376.836 526.861 372.936C528.814 369.037 530.77 366.764 530.445 360.592C530.119 354.419 532.724 350.195 535.657 348.897C538.59 347.598 538.262 354.419 540.544 354.744C542.823 355.069 546.082 352.471 547.384 350.52C548.686 348.572 550.968 348.897 552.27 352.468C553.573 356.043 556.18 357.666 557.808 351.494C559.433 345.334 561.383 341.766 568.188 343.686C568.568 342.879 568.931 342.113 569.209 341.422C570.512 338.172 567.256 332.325 564.974 327.126C563.858 324.586 563.343 322.329 563.103 320.686C562.572 321.414 562.477 322.035 562.477 322.035C562.477 322.035 562.259 320.519 562.91 317.922C563.561 315.324 567.471 312.074 567.471 312.074L566.383 307.525L560.302 306.658L560.248 304.723L551.455 271.1L548.525 250.146L523.605 249.172L522.138 225.782L524.582 221.397L526.048 183.875L510.902 189.234L497.708 163.406L483.051 153.659L466.928 132.706L441.521 146.349L381.421 140.013L319.858 149.271C319.858 149.271 319.807 149.208 319.709 149.095C321.05 152.124 323.158 156.128 325.87 158.832C330.757 163.706 331.733 167.605 336.294 167.605H336.282Z" fill="#9CD9FF" stroke="white" stroke-miterlimit="10"></path>
<path d="M789.608 224.389L777.531 217.061C773.865 220.725 762.651 225.468 762.651 225.468L756.613 237.538L749.928 233.875L741.95 237.755C741.304 241.635 738.068 246.591 732.463 253.273C726.857 259.954 710.468 263.618 710.468 263.618L697.745 274.609L698.608 280.428L694.512 279.782L679.42 287.972L680.283 298.101C680.283 298.101 666.05 308.446 665.836 309.309C665.623 310.172 664.973 315.99 664.973 315.99L661.044 318.572C661.656 319.453 662.359 320.407 663.034 321.163C664.76 323.102 666.053 323.318 668.209 324.181C670.365 325.043 669.072 328.491 671.658 329.137C674.244 329.783 674.461 331.075 676.834 333.88C679.206 336.681 684.165 338.406 685.245 339.915C686.324 341.424 684.598 341.64 685.245 344.009C685.891 346.38 685.028 351.12 685.891 352.845C686.754 354.57 689.34 354.354 689.127 355C688.91 355.646 686.324 356.938 687.834 358.664C689.343 360.389 690.636 362.328 691.716 363.836C692.209 364.526 694.017 364.947 695.827 365.198L695.922 364.266L693.659 360.063C693.659 360.063 696.895 361.032 698.188 360.709C699.481 360.386 699.157 358.124 698.188 356.182C697.218 354.241 695.925 350.364 694.952 347.453C693.982 344.542 691.716 344.868 691.716 344.868L690.746 342.929L695.922 339.372L697.538 329.35L702.067 325.147C702.067 325.147 711.448 333.553 715.327 336.138C719.206 338.723 720.825 332.904 721.795 331.289C722.765 329.673 724.708 329.35 728.587 326.762C732.466 324.174 743.789 319.005 744.759 318.032C745.729 317.06 749.288 314.152 749.288 314.152L749.934 306.718L751.874 305.426L756.048 308.5C756.359 306.301 756.72 303.496 756.833 301.545C757.049 297.882 755.54 295.51 754.03 293.355C752.52 291.2 751.444 287.753 751.444 285.381C751.444 284.136 751.861 282.059 752.257 280.366L747.348 274.82L737.644 273.957L736.998 270.077L751.444 259.948L760.715 246.155C760.715 246.155 764.381 244.863 767.183 244.646C769.986 244.43 769.123 236.026 769.123 236.026L785.512 228.053L789.608 224.389Z" fill="#1da1f2" stroke="white" stroke-miterlimit="10"></path>
<path d="M789.542 323.118C792.548 324.62 795.338 326.549 798.771 326.98C802.205 327.408 806.286 327.195 808.216 323.118C808.479 322.563 808.785 321.988 809.116 321.405C811.222 317.705 814.49 313.663 816.159 312.18C818.089 310.463 820.236 309.177 823.241 308.749C826.247 308.322 830.968 309.392 833.761 309.177C836.551 308.962 840.201 308.534 842.135 305.531C843.078 304.064 843.712 301.526 844.119 299.309C844.056 299.26 844.037 299.191 844.069 299.097C844.39 298.133 842.138 289.445 842.138 289.445L841.172 285.587L830.546 290.737L825.072 280.127L818.311 272.095L815.412 274.049L814.768 265.411H810.582L809.616 269.544L811.225 275.607L809.294 284.294L802.533 279.79L802.855 297.483L798.025 293.943L796.416 297.162L792.551 292.657L790.62 298.448L784.181 293.943L769.155 289.654L769.371 283.005C769.371 283.005 767.225 279.359 764.647 276.787C762.069 274.214 761.857 275.07 761.857 275.07L752.412 280.645L752.362 280.589C751.968 282.271 751.553 284.341 751.553 285.58C751.553 287.94 752.628 291.371 754.127 293.516C755.63 295.66 757.133 298.02 756.917 301.666C756.802 303.608 756.446 306.399 756.136 308.587L758.098 310.032L764.216 319.363L764.538 321.292C764.538 321.292 764.538 323.543 766.468 324.189C768.099 324.732 770.411 325.959 771.096 326.331C772.936 326.093 775.251 325.606 777.523 324.62C782.459 322.475 786.539 321.617 789.545 323.118H789.542Z" fill="#9CD9FF"></path>
<path d="M809.116 321.405C808.785 321.988 808.479 322.563 808.216 323.118C806.286 327.195 802.205 327.408 798.771 326.98C795.338 326.549 792.548 324.62 789.542 323.118H789.545C786.539 321.617 782.459 322.475 777.523 324.62C775.251 325.606 772.936 326.093 771.096 326.331C770.411 325.959 768.099 324.732 766.468 324.189C764.538 323.543 764.538 321.292 764.538 321.292L764.216 319.363L758.098 310.032L756.136 308.587C756.446 306.399 756.802 303.608 756.917 301.666C757.133 298.02 755.63 295.66 754.127 293.516C752.628 291.371 751.553 287.94 751.553 285.58C751.553 284.341 751.968 282.271 752.362 280.589L752.412 280.645L761.857 275.07C761.857 275.07 762.069 274.214 764.647 276.787C767.225 279.359 769.371 283.005 769.371 283.005L769.155 289.654L784.181 293.943L790.62 298.448L792.551 292.657L796.416 297.162L798.025 293.943L802.855 297.483L802.533 279.79L809.294 284.294L811.225 275.607L809.616 269.544L810.582 265.411H814.768L815.412 274.049L818.311 272.095L825.072 280.127L830.546 290.737L841.172 285.587L842.138 289.445C842.138 289.445 844.39 298.133 844.069 299.097C844.037 299.191 844.056 299.26 844.119 299.309C843.712 301.526 843.078 304.064 842.135 305.531C840.201 308.534 836.551 308.962 833.761 309.177C830.968 309.392 826.247 308.322 823.241 308.749C820.236 309.177 818.089 310.463 816.159 312.18C814.49 313.663 811.222 317.705 809.116 321.405ZM809.116 321.405C809.091 321.405 809.076 321.405 809.076 321.405" fill="#9CD9FF" stroke="white" stroke-miterlimit="10"></path>
<path d="M604.795 404.029C607.369 403.378 609.303 402.076 608.337 397.518C607.372 392.96 601.255 394.915 597.068 395.891C592.882 396.867 593.204 398.494 588.696 394.915C584.187 391.333 585.796 389.055 586.765 386.774C587.733 384.494 586.121 384.497 581.935 383.517C577.748 382.541 580.326 378.634 579.682 375.705C579.039 372.774 574.53 375.705 570.344 373.102C566.158 370.499 570.022 365.941 572.275 361.708C574.527 357.475 568.732 356.499 566.158 353.242C564.13 350.68 565.695 347.107 567.079 344.116C560.353 342.192 558.425 345.768 556.819 351.941C555.21 358.126 552.633 356.499 551.346 352.917C550.059 349.334 547.803 349.009 546.516 350.965C545.229 352.917 542.008 355.523 539.755 355.197C537.503 354.872 537.824 348.036 534.925 349.338C532.026 350.639 529.451 354.872 529.773 361.057C530.095 367.243 528.164 369.523 526.23 373.428C524.297 377.332 524.943 388.079 524.943 388.079C524.943 388.079 520.435 388.404 517.217 388.079C513.996 387.754 508.844 385.147 508.844 385.147L508.201 390.357L495.645 381.565C495.645 381.565 494.679 393.285 493.714 398.169C492.748 403.052 484.697 396.867 484.697 396.867L483.732 402.076C483.732 402.076 479.546 400.775 475.037 402.402C470.529 404.029 480.189 406.96 482.764 410.542C485.338 414.125 479.861 426.495 479.861 426.495L503.049 427.471L513.674 423.563C513.674 423.563 516.249 426.82 518.826 433.656C521.404 440.492 526.877 435.608 531.06 432.355C535.247 429.098 537.821 430.077 536.856 432.68C535.89 435.283 535.569 438.54 537.499 438.215C539.43 437.889 540.077 435.937 540.72 433.006C541.364 430.074 544.907 431.704 547.159 433.982C549.412 436.259 550.38 437.239 552.633 435.934C554.886 434.632 557.141 429.423 558.75 427.468C560.359 425.516 567.767 426.817 569.054 427.468C570.341 428.119 579.679 437.561 579.679 437.561C579.679 437.561 581.61 433.653 582.9 431.701C584.187 429.749 586.443 428.769 586.443 428.769L597.712 433.328L598.509 435.072L600.186 433.978V424.862L604.248 420.954V418.023L605.585 417.233C604.551 414.317 603.392 411.313 602.542 409.882C600.611 406.625 602.22 404.673 604.795 404.022V404.029Z" fill="#9CD9FF" stroke="white" stroke-miterlimit="10"></path>
<path d="M892.529 305.616L872.703 304.962L862.952 302.018L860.026 297.766L850.6 293.187L849.3 298.093C849.3 298.093 845.059 299.425 844.479 298.962C844.072 301.215 843.428 303.798 842.476 305.286C840.527 308.338 836.844 308.773 834.025 308.992C831.208 309.211 826.44 308.119 823.407 308.557C820.373 308.992 818.206 310.302 816.258 312.044C814.574 313.552 811.272 317.661 809.149 321.421C810.02 321.459 824.797 322.087 827.743 322.509C830.776 322.944 839.442 324.47 843.343 326.869C847.244 329.268 853.094 332.32 853.094 335.588C853.094 336.934 852.873 338.165 852.615 339.152L858.402 342.566L861 336.353L855.475 328.176L856.449 325.888L870.098 332.755L872.7 326.542L876.925 327.849L877.575 320.329C877.575 320.329 891.227 311.825 894.475 308.884C897.726 305.939 892.526 305.613 892.526 305.613L892.529 305.616Z" fill="#9CD9FF" stroke="white" stroke-miterlimit="10"></path>
<path d="M842.703 327.361C838.844 324.997 830.27 323.492 827.269 323.064C824.358 322.648 809.735 322.029 808.874 321.991C808.543 322.576 808.237 323.151 807.975 323.708C806.047 327.789 801.972 328.005 798.543 327.577C795.115 327.148 792.329 325.212 789.327 323.708C786.326 322.204 782.254 323.064 777.322 325.212C775.053 326.201 772.738 326.688 770.904 326.926C771.029 326.995 771.107 327.039 771.107 327.039C771.107 327.039 766.926 329.941 765.641 330.907C764.355 331.873 762.103 335.42 762.103 335.42L758.886 339.933C758.886 339.933 755.669 342.509 754.705 342.835C753.741 343.157 751.489 346.059 751.489 346.059L750.524 349.605L752.774 351.538L760.814 352.826L766.923 362.496L771.425 363.14L801.651 353.149L815.478 358.95L819.981 354.759L823.197 362.171L829.306 355.403L836.058 354.115L836.7 349.602L842.488 344.445L842.166 340.577L848.275 337.353L851.873 339.467C852.128 338.494 852.347 337.281 852.347 335.955C852.347 332.73 846.559 329.722 842.7 327.361H842.703Z" fill="#9CD9FF" stroke="white" stroke-miterlimit="10"></path>
<path d="M690.93 363.736C689.864 362.242 688.587 360.322 687.097 358.613C685.607 356.904 688.163 355.624 688.374 354.984C688.587 354.344 686.031 354.559 685.179 352.85C684.327 351.141 685.179 346.447 684.541 344.098C683.903 341.749 685.607 341.538 684.541 340.044C683.475 338.549 678.58 336.841 676.238 334.066C673.896 331.292 673.685 330.012 671.129 329.369C668.573 328.729 669.853 325.314 667.724 324.46C665.596 323.606 664.319 323.391 662.615 321.471C661.952 320.723 661.255 319.778 660.651 318.905L657.079 321.257L658.144 332.998L660.273 335.772C662.401 338.546 659.207 343.244 659.207 343.244L654.312 340.469L652.397 342.604C652.397 342.604 650.235 341.364 647.236 339.615C646.161 341.165 643.958 343.918 641.541 344.524C638.136 345.378 636.008 346.873 635.794 348.578C635.58 350.287 636.218 356.05 634.942 358.184C633.666 360.319 631.11 364.162 632.814 365.867C634.518 367.573 636.857 371.631 641.117 369.922C645.374 368.213 649.631 365.224 650.696 364.373C651.762 363.519 653.039 363.093 656.019 366.293C657.804 368.21 659.666 369.512 661.466 370.341C666.209 369.645 680.712 367.464 683.903 366.399C687.735 365.119 694.759 367.359 694.759 367.359L694.985 365.078C693.197 364.83 691.413 364.414 690.927 363.73L690.93 363.736Z" fill="#9CD9FF" stroke="white" stroke-miterlimit="10"></path>
<path d="M656.185 366.81C653.157 363.572 651.86 364.005 650.777 364.869C649.695 365.733 645.37 368.754 641.045 370.479C636.72 372.206 634.341 368.104 632.61 366.38C630.879 364.655 633.475 360.77 634.772 358.612C636.069 356.455 635.421 350.628 635.638 348.901C635.855 347.173 638.017 345.663 641.476 344.802C643.931 344.189 646.169 341.403 647.262 339.839C640.192 335.734 628.546 328.856 629.151 328.403C630.016 327.756 632.61 322.794 633.258 319.772C633.907 316.751 634.772 312.652 633.475 311.355C632.179 310.061 627.42 310.491 627.42 313.729C627.42 316.967 624.609 318.261 622.878 319.339C621.147 320.419 620.281 321.713 618.77 326.459C617.256 331.208 614.663 329.697 611.849 329.911C609.038 330.128 607.741 332.286 606.227 333.363C604.713 334.443 601.468 333.363 598.443 332.716C595.415 332.069 594.336 334.227 591.308 334.657C588.28 335.087 588.063 330.988 587.414 327.537C586.766 324.085 581.359 323.221 577.682 321.927C574.006 320.633 570.33 318.258 566.222 318.905C564.044 319.248 562.902 320.196 562.307 321.013C562.543 322.649 563.059 324.898 564.17 327.43C566.439 332.609 569.684 338.435 568.388 341.674C568.111 342.361 567.749 343.125 567.371 343.929C567.387 343.932 567.399 343.935 567.415 343.941C567.399 343.938 567.387 343.935 567.371 343.929C565.973 346.903 564.4 350.456 566.442 353.003C569.036 356.241 574.878 357.212 572.605 361.42C570.336 365.629 566.442 370.161 570.66 372.75C574.878 375.338 579.42 372.426 580.068 375.338C580.717 378.252 578.123 382.135 582.338 383.105C586.555 384.076 588.176 384.076 587.204 386.343C586.231 388.611 584.61 390.876 589.149 394.437C593.691 397.999 593.366 396.378 597.584 395.408C601.802 394.437 607.965 392.493 608.937 397.025C609.91 401.558 607.965 402.852 605.368 403.499C602.771 404.146 601.15 406.09 603.099 409.325C603.955 410.748 605.122 413.732 606.164 416.634L614.826 411.593C614.826 411.593 650.135 414.181 655.001 414.831C659.867 415.478 659.867 410.946 659.867 410.946L664.409 407.384L663.761 394.761L667.33 392.496L671.227 394.114V393.143C671.227 392.173 669.275 384.079 669.275 384.079L671.866 384.726C671.866 384.726 673.163 387.314 674.135 389.905C675.108 392.496 676.08 392.17 677.38 390.552C678.677 388.935 675.111 384.402 675.111 384.402L670.245 379.546L672.517 377.282C672.517 377.282 672.517 377.282 674.466 378.252C676.414 379.223 677.39 377.282 677.39 377.282L681.614 377.605V373.073C681.614 373.073 675.117 371.779 673.82 371.779C672.524 371.779 668.948 373.397 666.675 374.044C664.406 374.691 660.188 371.129 660.188 371.129C660.188 371.129 660.758 371.047 661.721 370.906C659.893 370.067 658.001 368.751 656.188 366.813L656.185 366.81Z" fill="#9CD9FF"></path>
<path d="M567.371 343.929C567.749 343.125 568.111 342.361 568.388 341.674C569.684 338.435 566.439 332.609 564.17 327.43C563.059 324.898 562.543 322.649 562.307 321.013C562.902 320.196 564.044 319.248 566.222 318.905C570.33 318.258 574.006 320.633 577.682 321.927C581.359 323.221 586.766 324.085 587.414 327.537C588.063 330.988 588.28 335.087 591.308 334.657C594.336 334.227 595.415 332.069 598.443 332.716C601.468 333.363 604.713 334.443 606.227 333.363C607.741 332.286 609.038 330.128 611.849 329.911C614.663 329.697 617.256 331.208 618.77 326.459C620.281 321.713 621.147 320.419 622.878 319.339C624.609 318.261 627.42 316.967 627.42 313.729C627.42 310.491 632.179 310.061 633.475 311.355C634.772 312.652 633.907 316.751 633.258 319.772C632.61 322.794 630.016 327.756 629.151 328.403C628.546 328.856 640.192 335.734 647.262 339.839C646.169 341.403 643.931 344.189 641.476 344.802C638.017 345.663 635.855 347.173 635.638 348.901C635.421 350.628 636.069 356.455 634.772 358.612C633.475 360.77 630.879 364.655 632.61 366.38C634.341 368.104 636.72 372.206 641.045 370.479C645.37 368.754 649.695 365.733 650.777 364.869C651.86 364.005 653.157 363.572 656.185 366.81L656.188 366.813C658.001 368.751 659.893 370.067 661.721 370.906C660.758 371.047 660.188 371.129 660.188 371.129C660.188 371.129 664.406 374.691 666.675 374.044C668.948 373.397 672.524 371.779 673.82 371.779C675.117 371.779 681.614 373.073 681.614 373.073V377.605L677.39 377.282C677.39 377.282 676.414 379.223 674.466 378.252C672.517 377.282 672.517 377.282 672.517 377.282L670.245 379.546L675.111 384.402C675.111 384.402 678.677 388.935 677.38 390.552C676.08 392.17 675.108 392.496 674.135 389.905C673.163 387.314 671.866 384.726 671.866 384.726L669.275 384.079C669.275 384.079 671.227 392.173 671.227 393.143V394.114L667.33 392.496L663.761 394.761L664.409 407.384L659.867 410.946C659.867 410.946 659.867 415.478 655.001 414.831C650.135 414.181 614.826 411.593 614.826 411.593L606.164 416.634C605.122 413.732 603.955 410.748 603.099 409.325C601.15 406.09 602.771 404.146 605.368 403.499C607.965 402.852 609.91 401.558 608.937 397.025C607.965 392.493 601.802 394.437 597.584 395.408C593.366 396.378 593.691 397.999 589.149 394.437C584.61 390.876 586.231 388.611 587.204 386.343C588.176 384.076 586.555 384.076 582.338 383.105C578.123 382.135 580.717 378.252 580.068 375.338C579.42 372.426 574.878 375.338 570.66 372.75C566.442 370.161 570.336 365.629 572.605 361.42C574.878 357.212 569.036 356.241 566.442 353.003C564.4 350.456 565.973 346.903 567.371 343.929ZM567.371 343.929C567.387 343.932 567.399 343.935 567.415 343.941C567.399 343.938 567.387 343.935 567.371 343.929Z" fill="#9CD9FF" stroke="white" stroke-miterlimit="10"></path></g><defs><clipPath id="clip0_102_407"><rect width="912" height="578" fill="white">
</rect></clipPath></defs></svg>