<svg width="40" height="41" viewBox="0 0 40 41" fill="none" xmlns="http://www.w3.org/2000/svg">
<path d="M36.0701 15.45L35.3974 15.4505C33.541 8.532 27.2242 3.6145 19.9932 3.6145C12.8051 3.6145 6.49468 8.53319 4.60753 15.4519L3.92926 15.4514C1.76261 15.4514 0 17.2228 0 19.4003V23.8355C0 26.0127 1.76261 27.7839 3.92926 27.7839H4.41819C5.04712 32.757 9.28413 36.6143 14.401 36.6143H15.3392C15.837 37.7889 16.9969 38.6145 18.3451 38.6145H21.6548C23.4555 38.6145 24.9206 37.1423 24.9206 35.3327C24.9206 33.5228 23.4555 32.0502 21.6548 32.0502H18.3451C16.9972 32.0502 15.8377 32.8757 15.3397 34.0497H14.4008C10.2589 34.0497 6.88935 30.6636 6.88935 26.5017V16.878C8.20915 10.6719 13.7001 6.17925 19.9932 6.17925C26.328 6.17925 31.8252 10.6702 33.1108 16.8732V26.5006C33.1108 27.2088 33.6821 27.7829 34.3867 27.7829H36.0709C38.2374 27.7829 40 26.0117 40 23.8343V19.399C40.0002 17.2216 38.2376 15.45 36.0701 15.45ZM18.3451 34.6148H21.6548C22.0484 34.6148 22.3688 34.9369 22.3688 35.3327C22.3688 35.7283 22.0484 36.0499 21.6548 36.0499H18.3451C17.9516 36.0499 17.6314 35.7282 17.6314 35.3327C17.6314 34.9369 17.9514 34.6148 18.3451 34.6148ZM2.5518 23.8355V19.4003C2.5518 18.6371 3.16968 18.016 3.92807 18.016L4.33755 18.0163V25.2192H3.92926C3.16968 25.2194 2.5518 24.5986 2.5518 23.8355ZM37.4484 23.8342C37.4484 24.5972 36.8305 25.2182 36.0711 25.2182H35.6628V18.015L36.0711 18.0146C36.8305 18.0146 37.4484 18.6356 37.4484 19.399V23.8342Z" fill="#54AF30"/>
</svg>
