<svg width="88" height="89" viewBox="0 0 88 89" fill="none" xmlns="http://www.w3.org/2000/svg">
<rect x="43.8408" y="0.614502" width="62" height="62" rx="10" transform="rotate(45 43.8408 0.614502)" fill="#4F9E2F"/>
<g clip-path="url(#clip0_419_1863)">
<path d="M37.2878 45.5273H40.3258V58.1629C40.3258 58.4124 40.5259 58.6145 40.7728 58.6145H45.9239C46.1708 58.6145 46.3709 58.4124 46.3709 58.1629V45.5868H49.8633C50.0904 45.5868 50.2814 45.4147 50.3073 45.1868L50.8378 40.535C50.8523 40.407 50.8122 40.2788 50.7275 40.1828C50.6426 40.0867 50.5212 40.0317 50.3938 40.0317H46.371V37.1157C46.371 36.2367 46.8395 35.791 47.7636 35.791C47.8953 35.791 50.3938 35.791 50.3938 35.791C50.6407 35.791 50.8408 35.5887 50.8408 35.3394V31.0695C50.8408 30.82 50.6407 30.6178 50.3938 30.6178H46.769C46.7434 30.6166 46.6866 30.6145 46.603 30.6145C45.974 30.6145 43.7878 30.7392 42.0609 32.3443C40.1476 34.1229 40.4135 36.2525 40.4771 36.6218V40.0316H37.2878C37.0409 40.0316 36.8408 40.2338 36.8408 40.4832V45.0756C36.8408 45.3251 37.0409 45.5273 37.2878 45.5273Z" fill="white"/>
</g>
<defs>
<clipPath id="clip0_419_1863">
<rect width="28" height="28" fill="white" transform="translate(29.8408 30.6145)"/>
</clipPath>
</defs>
</svg>
