<svg width="88" height="89" viewBox="0 0 88 89" fill="none" xmlns="http://www.w3.org/2000/svg">
<rect x="43.8408" y="0.614502" width="62" height="62" rx="10" transform="rotate(45 43.8408 0.614502)" fill="#4F9E2F"/>
<g clip-path="url(#clip0_419_1868)">
<path d="M49.7073 30.6145H37.9744C33.4895 30.6145 29.8408 34.2632 29.8408 38.7481V50.4809C29.8408 54.9658 33.4895 58.6145 37.9744 58.6145H49.7073C54.1921 58.6145 57.8408 54.9658 57.8408 50.481V38.7481C57.8408 34.2632 54.1921 30.6145 49.7073 30.6145ZM55.6533 50.4809C55.6533 53.7596 52.9859 56.427 49.7073 56.427H37.9744C34.6957 56.427 32.0283 53.7596 32.0283 50.481V38.7481C32.0283 35.4694 34.6957 32.802 37.9744 32.802H49.7073C52.9859 32.802 55.6533 35.4694 55.6533 38.7481V50.4809Z" fill="white"/>
<path d="M43.3408 36.6145C39.2053 36.6145 35.8408 39.979 35.8408 44.1145C35.8408 48.25 39.2053 51.6145 43.3408 51.6145C47.4764 51.6145 50.8408 48.25 50.8408 44.1145C50.8408 39.979 47.4764 36.6145 43.3408 36.6145ZM43.3408 49.4406C40.404 49.4406 38.0147 47.0513 38.0147 44.1145C38.0147 41.1777 40.404 38.7884 43.3408 38.7884C46.2776 38.7884 48.6669 41.1777 48.6669 44.1145C48.6669 47.0513 46.2776 49.4406 43.3408 49.4406Z" fill="white"/>
<path d="M51.8408 37.6145C52.3931 37.6145 52.8408 37.1668 52.8408 36.6145C52.8408 36.0622 52.3931 35.6145 51.8408 35.6145C51.2885 35.6145 50.8408 36.0622 50.8408 36.6145C50.8408 37.1668 51.2885 37.6145 51.8408 37.6145Z" fill="white"/>
</g>
<defs>
<clipPath id="clip0_419_1868">
<rect width="28" height="28" fill="white" transform="translate(29.8408 30.6145)"/>
</clipPath>
</defs>
</svg>
