<svg width="88" height="89" viewBox="0 0 88 89" fill="none" xmlns="http://www.w3.org/2000/svg">
<rect x="43.8408" y="0.614502" width="62" height="62" rx="10" transform="rotate(45 43.8408 0.614502)" fill="#4F9E2F"/>
<g clip-path="url(#clip0_419_1880)">
<path d="M30.3354 44.1224L36.7872 46.493L39.2844 54.3993C39.4442 54.9057 40.0731 55.0929 40.4906 54.7568L44.0869 51.8706C44.4639 51.5682 45.0009 51.5531 45.3948 51.8347L51.8813 56.4708C52.3279 56.7904 52.9606 56.5495 53.0726 56.0182L57.8243 33.5167C57.9466 32.9364 57.3674 32.4523 56.8061 32.666L30.3278 42.7218C29.6744 42.9699 29.6801 43.8807 30.3354 44.1224ZM38.8819 45.2311L51.4911 37.5857C51.7177 37.4487 51.9509 37.7504 51.7563 37.9281L41.35 47.4509C40.9843 47.7861 40.7483 48.2347 40.6815 48.7216L40.327 51.3077C40.2801 51.653 39.7874 51.6873 39.6906 51.3531L38.3272 46.6372C38.1711 46.0993 38.3986 45.5247 38.8819 45.2311Z" fill="white"/>
</g>
<defs>
<clipPath id="clip0_419_1880">
<rect width="28" height="28" fill="white" transform="translate(29.8408 30.6145)"/>
</clipPath>
</defs>
</svg>
