<svg width="88" height="89" viewBox="0 0 88 89" fill="none" xmlns="http://www.w3.org/2000/svg">
<rect x="43.8408" y="0.614502" width="62" height="62" rx="10" transform="rotate(45 43.8408 0.614502)" fill="#4F9E2F"/>
<path d="M63.8408 39.3148C63.8408 34.5009 59.947 30.6145 55.124 30.6145H32.5576C27.7346 30.6145 23.8408 34.5009 23.8408 39.3148V49.9142C23.8408 54.7281 27.7346 58.6145 32.5576 58.6145H55.124C59.947 58.6145 63.8408 54.7281 63.8408 49.9142V39.3148ZM49.593 45.1445L40.6107 50.0908C40.2125 50.3117 39.8585 50.0025 39.8585 49.5609V39.4473C39.8585 39.0057 40.2125 38.6965 40.6107 38.9173L49.6815 44.0845C50.0798 44.3495 49.9913 44.9237 49.593 45.1445Z" fill="white"/>
</svg>
