<svg width="80" height="79" viewBox="0 0 80 79" fill="none" xmlns="http://www.w3.org/2000/svg">
<g clip-path="url(#clip0_442_2107)">
<path d="M53.8501 31.6347L15.2001 12.3647L1.3501 19.27L40.0001 38.54L53.8501 31.6347Z" fill="#16ACE0"/>
<path d="M17.6499 11.1431L56.2999 30.413L62.3499 27.3966L23.6999 8.12671L17.6499 11.1431Z" fill="#1B3954"/>
<path d="M0 59.5797L38.9 78.9743V40.4344L0 21.0398V59.5797Z" fill="#1B3954"/>
<path d="M78.6499 19.2699L39.9999 0L26.1499 6.90527L64.7999 26.1752L78.6499 19.2699Z" fill="#16ACE0"/>
<path d="M80 21.0398L65.9 28.0697V36.2463C65.9 36.5206 65.8 36.7948 65.625 36.9942L61.375 41.606C61.175 41.8304 60.875 41.955 60.575 41.955C60.55 41.955 60.5 41.955 60.475 41.955L56.225 41.5811C55.65 41.5312 55.225 41.0576 55.225 40.4842V33.4045L41.125 40.4344V78.9743L80.025 59.5797V21.0398H80Z" fill="#1B3954"/>
<path d="M57.3999 39.4873L60.0999 39.7365L63.6999 35.8227V29.1667L57.3999 32.3078V39.4873Z" fill="#1B3954"/>
</g>
<defs>
<clipPath id="clip0_442_2107">
<rect width="80" height="78.9744" fill="white"/>
</clipPath>
</defs>
</svg>
