<svg width="74" height="78" viewBox="0 0 74 78" fill="none" xmlns="http://www.w3.org/2000/svg">
<g clip-path="url(#clip0_442_2129)">
<path d="M67.8102 38.93C67.8102 37.45 67.7002 36 67.5002 34.58L73.8102 26.22C72.3002 21.84 70.0302 17.81 67.1502 14.29L56.7302 15.27C54.2802 13.22 51.5002 11.55 48.4802 10.34L44.4002 0.71C42.0002 0.25 39.5302 0 37.0002 0C34.8702 0 32.7802 0.18 30.7402 0.51L26.3802 10.01C23.3302 11.13 20.5102 12.73 17.9902 14.7L7.6102 13.42C4.6302 16.85 2.2302 20.81 0.590195 25.14L6.6502 33.68C6.3602 35.39 6.2002 37.14 6.2002 38.93C6.2002 40.41 6.3102 41.86 6.5102 43.28L0.200195 51.64C1.7102 56.02 3.9802 60.05 6.8602 63.57L17.2802 62.59C19.7302 64.64 22.5102 66.31 25.5302 67.52L29.6102 77.16C32.0102 77.62 34.4802 77.87 37.0102 77.87C39.1402 77.87 41.2302 77.69 43.2702 77.36L47.6302 67.86C50.6802 66.74 53.5002 65.14 56.0202 63.17L66.4002 64.45C69.3802 61.02 71.7802 57.06 73.4202 52.73L67.3602 44.19C67.6502 42.48 67.8102 40.73 67.8102 38.94V38.93ZM62.1902 38.93C62.1902 52.84 50.9102 64.12 37.0002 64.12C23.0902 64.12 11.8102 52.84 11.8102 38.93C11.8102 25.02 23.0902 13.74 37.0002 13.74C50.9102 13.74 62.1902 25.02 62.1902 38.93Z" fill="#1B3954"/>
<path d="M37.0001 57.1C26.9801 57.1 18.8301 48.95 18.8301 38.93C18.8301 28.91 26.9801 20.76 37.0001 20.76C47.0201 20.76 55.1701 28.91 55.1701 38.93C55.1701 48.95 47.0201 57.1 37.0001 57.1ZM37.0001 26.77C30.2901 26.77 24.8301 32.23 24.8301 38.94C24.8301 45.65 30.2901 51.11 37.0001 51.11C43.7101 51.11 49.1701 45.65 49.1701 38.94C49.1701 32.23 43.7101 26.77 37.0001 26.77Z" fill="#16ACE0"/>
</g>
<defs>
<clipPath id="clip0_442_2129">
<rect width="73.6" height="77.87" fill="white" transform="translate(0.200195)"/>
</clipPath>
</defs>
</svg>
