<svg width="66" height="84" viewBox="0 0 66 84" fill="none" xmlns="http://www.w3.org/2000/svg">
<g clip-path="url(#clip0_442_2118)">
<path d="M25.5337 55.4792H17.355V63.7307H25.5337V55.4792Z" fill="#1B3954"/>
<path d="M25.5337 37H17.355V45.2515H25.5337V37Z" fill="#1B3954"/>
<path d="M25.5337 19H17.355V27.2515H25.5337V19Z" fill="#1B3954"/>
<path d="M18.0958 7.00537H10.0596V73.1898H55.9404V7.00537H47.9041V9.19043C47.9041 9.8517 47.3627 10.4267 46.6787 10.4267H19.3212C18.6658 10.4267 18.0958 9.88045 18.0958 9.19043V7.00537ZM27.9559 64.9958C27.9559 65.6571 27.4145 66.2033 26.7591 66.2033H16.158C15.5026 66.2033 14.9611 65.6571 14.9611 64.9958V54.3005C14.9611 53.6392 15.5026 53.0642 16.158 53.0642H26.7591C27.4145 53.0642 27.9559 53.6105 27.9559 54.3005V64.9958ZM27.9559 46.4515C27.9559 47.1128 27.4145 47.6878 26.7591 47.6878H16.158C15.5026 47.6878 14.9611 47.1415 14.9611 46.4515V35.7562C14.9611 35.0949 15.5026 34.5199 16.158 34.5199H26.7591C27.4145 34.5199 27.9559 35.0662 27.9559 35.7562V46.4515ZM33.0855 21.3233H49.842C50.4974 21.3233 51.0673 21.8695 51.0673 22.5596C51.0673 23.2496 50.5259 23.7959 49.842 23.7959H33.0855C32.43 23.7959 31.8886 23.2496 31.8886 22.5596C31.8886 21.8695 32.43 21.3233 33.0855 21.3233ZM33.0855 39.8676H49.842C50.4974 39.8676 51.0673 40.4138 51.0673 41.0751C51.0673 41.7364 50.5259 42.3114 49.842 42.3114H33.0855C32.43 42.3114 31.8886 41.7651 31.8886 41.0751C31.8886 40.3851 32.43 39.8676 33.0855 39.8676ZM33.0855 58.4118H49.842C50.4974 58.4118 51.0673 58.9581 51.0673 59.6481C51.0673 60.3382 50.5259 60.8844 49.842 60.8844H33.0855C32.43 60.8844 31.8886 60.3382 31.8886 59.6481C31.8886 58.9581 32.43 58.4118 33.0855 58.4118ZM26.7591 15.9756C27.4145 15.9756 27.9559 16.5219 27.9559 17.2119V27.9072C27.9559 28.5685 27.4145 29.1435 26.7591 29.1435H16.158C15.5026 29.1435 14.9611 28.5972 14.9611 27.9072V17.2119C14.9611 16.5506 15.5026 15.9756 16.158 15.9756H26.7591Z" fill="#16ACE0"/>
<path d="M47.9041 -0.326172V4.56147H57.1658C57.8497 4.56147 58.3912 5.10773 58.3912 5.79775V74.426C58.3912 75.116 57.8497 75.6623 57.1658 75.6623H8.86269C8.20725 75.6623 7.63731 75.116 7.63731 74.426V5.769C7.63731 5.10773 8.17876 4.53272 8.86269 4.53272H18.0959V-0.326172H0V84H66V-0.326172H47.9041Z" fill="#1B3954"/>
<path d="M45.4818 -0.537842H20.5181V7.95396H45.4818V-0.537842Z" fill="#1B3954"/>
</g>
<defs>
<clipPath id="clip0_442_2118">
<rect width="66" height="84" fill="white"/>
</clipPath>
</defs>
</svg>
