<svg width="94" height="80" viewBox="0 0 94 80" fill="none" xmlns="http://www.w3.org/2000/svg">
<g clip-path="url(#clip0_442_2098)">
<path d="M14.0185 15.1467H11.0603C5.34293 15.1467 0.720703 19.7832 0.720703 25.4863V69.6605C0.720703 75.3778 5.35715 80.0001 11.0603 80.0001H14.0185V15.1467Z" fill="#16ACE0"/>
<path d="M82.9393 15.1467H80.0664V80.0143H82.9393C88.6566 80.0143 93.2789 75.3778 93.2789 69.6747V25.5005C93.2789 19.7832 88.6424 15.161 82.9393 15.161V15.1467Z" fill="#16ACE0"/>
<path d="M63.085 15.1467V10.3964C63.085 4.66489 58.4201 0 52.6886 0H41.2966C35.565 0 30.9001 4.66489 30.9001 10.3964V15.1467H21.6699V80.0142H72.4006V15.1467H63.085ZM37.5704 10.3964C37.5704 8.34844 39.2486 6.67022 41.2966 6.67022H52.6886C54.7366 6.67022 56.4148 8.33422 56.4148 10.3964V15.1467H37.5846V10.3964H37.5704ZM49.2895 62.72V67.9253H44.2833V63.0756C40.8557 62.9191 37.5419 62.0089 35.6077 60.8853L37.1437 54.912C39.2913 56.0924 42.3064 57.1591 45.6201 57.1591C48.5357 57.1591 50.5268 56.0356 50.5268 53.9876C50.5268 51.9396 48.8913 50.816 45.1224 49.5502C39.661 47.7156 35.9348 45.1556 35.9348 40.2062C35.9348 35.712 39.1064 32.1849 44.5677 31.1182V26.2684H49.5739V30.7627C53.0015 30.9191 55.2913 31.6302 56.9837 32.4409L55.5046 38.2151C54.1677 37.6604 51.821 36.48 48.1517 36.48C44.8379 36.48 43.757 37.9022 43.757 39.3387C43.757 41.0169 45.549 42.0978 49.8868 43.7333C55.9597 45.8809 58.4201 48.6827 58.4201 53.2764C58.4201 57.8702 55.2059 61.696 49.3321 62.72H49.2895Z" fill="#1B3954"/>
</g>
<defs>
<clipPath id="clip0_442_2098">
<rect width="92.5582" height="80" fill="white" transform="translate(0.720703)"/>
</clipPath>
</defs>
</svg>
