<svg width="68" height="76" viewBox="0 0 68 76" fill="none" xmlns="http://www.w3.org/2000/svg">
<g clip-path="url(#clip0_442_2136)">
<path d="M67.7179 10.9425C57.4095 13.0284 44.2094 8.37511 34.0026 0C23.7913 8.37511 10.5913 13.0284 0.282939 10.9425C0.282939 10.9425 -5.35466 61.4962 33.8746 75.951C33.9011 75.9599 34.0026 76 34.0026 76C34.0247 75.9911 34.0953 75.9643 34.1174 75.9554C73.3599 61.5096 67.7179 10.9425 67.7179 10.9425ZM61.8286 37.347C57.6081 54.5474 48.2622 66.1317 34.0468 71.8147C34.0335 71.8147 33.9982 71.8325 33.9982 71.8325C33.9982 71.8325 33.9849 71.828 33.9761 71.8236C19.7475 66.1451 10.3971 54.5563 6.17218 37.347C3.96482 28.3568 3.76616 19.9951 3.89418 15.2972C8.42369 15.5156 13.3505 14.7712 18.3877 13.0998C23.809 11.2946 29.1552 8.48654 34.0026 4.91631C38.8456 8.491 44.1918 11.2946 49.6175 13.0998C54.6547 14.7712 59.5815 15.5156 64.1066 15.2972C64.2346 19.9951 64.036 28.3568 61.8286 37.347Z" fill="#1B3954"/>
<path fill-rule="evenodd" clip-rule="evenodd" d="M60.7114 26.4936C61.0425 23.3558 61.1617 20.5433 61.1838 18.279H61.1794C57.1664 18.1319 52.9768 17.343 48.6857 15.9167C43.6529 14.2408 38.6113 11.7091 33.9935 8.54443C29.3713 11.7091 24.3297 14.2408 19.3013 15.9167C15.0102 17.343 10.8206 18.1364 6.80762 18.279C6.85618 22.8075 7.28882 29.5424 9.02822 36.6294C12.9044 52.4079 21.3012 63.1632 33.9979 68.6188C46.6947 63.1676 55.0959 52.4079 58.9676 36.6294C59.8373 33.0859 60.3803 29.6271 60.7114 26.4936ZM21.4336 35.1184L29.155 42.914L46.5622 25.3348L50.403 29.2125L29.155 50.6607L17.5972 38.9917L21.4336 35.1184Z" fill="#16ACE0"/>
</g>
<defs>
<clipPath id="clip0_442_2136">
<rect width="68" height="76" fill="white"/>
</clipPath>
</defs>
</svg>
