<svg width="67" height="66" viewBox="0 0 67 66" fill="none" xmlns="http://www.w3.org/2000/svg">
<circle cx="33.5002" cy="33.2968" r="32.6823" fill="#2B2A29"/>
<g clip-path="url(#clip0_419_1785)">
<path d="M24.9335 34.4901H28.905V51.0085C28.905 51.3346 29.1666 51.5989 29.4894 51.5989H36.2233C36.5461 51.5989 36.8077 51.3346 36.8077 51.0085V34.5679H41.3733C41.6701 34.5679 41.9199 34.3428 41.9538 34.0449L42.6472 27.9637C42.6663 27.7964 42.6138 27.6288 42.503 27.5033C42.3921 27.3777 42.2334 27.3058 42.0668 27.3058H36.8079V23.4937C36.8079 22.3446 37.4203 21.7619 38.6284 21.7619C38.8005 21.7619 42.0668 21.7619 42.0668 21.7619C42.3896 21.7619 42.6512 21.4975 42.6512 21.1715V15.5895C42.6512 15.2633 42.3896 14.9991 42.0668 14.9991H37.3281C37.2947 14.9974 37.2205 14.9947 37.1111 14.9947C36.2889 14.9947 33.4309 15.1578 31.1733 17.256C28.672 19.5812 29.0197 22.3653 29.1028 22.848V27.3056H24.9335C24.6107 27.3056 24.3491 27.5699 24.3491 27.896V33.8996C24.3491 34.2257 24.6107 34.4901 24.9335 34.4901Z" fill="white"/>
</g>
<defs>
<clipPath id="clip0_419_1785">
<rect width="36.6042" height="36.6042" fill="white" transform="translate(15.1982 14.9947)"/>
</clipPath>
</defs>
</svg>
