<svg width="66" height="66" viewBox="0 0 66 66" fill="none" xmlns="http://www.w3.org/2000/svg">
<circle cx="33.3175" cy="33.2968" r="32.6823" fill="#2B2A29"/>
<g clip-path="url(#clip0_419_1773)">
<path d="M40.9869 14.9947H25.6486C19.7855 14.9947 15.0156 19.7646 15.0156 25.6277V40.9659C15.0156 46.829 19.7855 51.5989 25.6486 51.5989H40.9869C46.8499 51.5989 51.6198 46.829 51.6198 40.966V25.6277C51.6198 19.7646 46.8499 14.9947 40.9869 14.9947ZM48.7601 40.9659C48.7601 45.2521 45.273 48.7392 40.9869 48.7392H25.6486C21.3624 48.7392 17.8753 45.2521 17.8753 40.966V25.6277C17.8753 21.3415 21.3624 17.8544 25.6486 17.8544H40.9869C45.273 17.8544 48.7601 21.3415 48.7601 25.6277V40.9659Z" fill="white"/>
<path d="M32.6641 22.8385C27.2577 22.8385 22.8594 27.2368 22.8594 32.6432C22.8594 38.0495 27.2577 42.4478 32.6641 42.4478C38.0704 42.4478 42.4688 38.0495 42.4688 32.6432C42.4688 27.2368 38.0704 22.8385 32.6641 22.8385ZM32.6641 39.6059C28.8248 39.6059 25.7013 36.4824 25.7013 32.6432C25.7013 28.8039 28.8248 25.6804 32.6641 25.6804C36.5033 25.6804 39.6268 28.8039 39.6268 32.6432C39.6268 36.4824 36.5033 39.6059 32.6641 39.6059Z" fill="white"/>
<path d="M43.776 24.1458C44.498 24.1458 45.0833 23.5605 45.0833 22.8385C45.0833 22.1165 44.498 21.5312 43.776 21.5312C43.054 21.5312 42.4688 22.1165 42.4688 22.8385C42.4688 23.5605 43.054 24.1458 43.776 24.1458Z" fill="white"/>
</g>
<defs>
<clipPath id="clip0_419_1773">
<rect width="36.6042" height="36.6042" fill="white" transform="translate(15.0156 14.9947)"/>
</clipPath>
</defs>
</svg>
