<svg width="12" height="17" viewBox="0 0 12 17" fill="none" xmlns="http://www.w3.org/2000/svg">
<path fill-rule="evenodd" clip-rule="evenodd" d="M6.00009 0.281158C9.22175 0.281158 11.8334 2.89283 11.8334 6.11449C11.9501 8.72283 9.85842 12.1978 6.67509 16.5978C6.51836 16.8143 6.26733 16.9425 6.00009 16.9425C5.73284 16.9425 5.48181 16.8143 5.32509 16.5978C2.14175 12.1895 0.0500861 8.71449 0.166753 6.11449C0.166753 2.89283 2.77843 0.281158 6.00009 0.281158ZM6.00009 14.7062C8.22509 11.5562 10.2834 8.23116 10.1668 6.18949V6.16449V6.11449C10.1668 3.81331 8.30127 1.94783 6.00009 1.94783C3.6989 1.94783 1.83342 3.81331 1.83342 6.11449V6.16449C1.71675 8.20616 3.77509 11.5312 6.00009 14.7062ZM6.00009 3.61449C4.61937 3.61449 3.50009 4.73378 3.50009 6.11449C3.50009 7.4952 4.61937 8.61449 6.00009 8.61449C7.3808 8.61449 8.50009 7.4952 8.50009 6.11449C8.50009 5.45145 8.23669 4.81557 7.76785 4.34672C7.29901 3.87788 6.66313 3.61449 6.00009 3.61449ZM5.16675 6.11449C5.16675 6.57473 5.53985 6.94783 6.00009 6.94783C6.46032 6.94783 6.83342 6.57473 6.83342 6.11449C6.83342 5.65425 6.46032 5.28116 6.00009 5.28116C5.53985 5.28116 5.16675 5.65425 5.16675 6.11449Z" fill="#2B2A29"/>
</svg>
