<svg width="18" height="15" viewBox="0 0 18 15" fill="none" xmlns="http://www.w3.org/2000/svg">
<path fill-rule="evenodd" clip-rule="evenodd" d="M16.9082 2.04783C16.4425 1.35889 15.6647 0.94658 14.8332 0.947833H3.1665C1.78579 0.947833 0.666504 2.06712 0.666504 3.44783V11.7812C0.666504 13.1619 1.78579 14.2812 3.1665 14.2812H14.8332C16.2139 14.2812 17.3332 13.1619 17.3332 11.7812V3.44783C17.3343 2.94923 17.1863 2.46168 16.9082 2.04783ZM3.1665 2.6145H14.8332C15.0725 2.6148 15.3002 2.71801 15.4582 2.89783L8.99984 6.67283L2.54984 2.8895C2.70739 2.71493 2.93136 2.61506 3.1665 2.6145ZM14.8332 12.6145C15.2934 12.6145 15.6665 12.2414 15.6665 11.7812V4.6895L9.83317 8.10617C9.57997 8.25304 9.29255 8.33065 8.99984 8.33117C8.70788 8.33318 8.42051 8.25847 8.1665 8.1145L2.33317 4.6895V11.7812C2.33317 12.2414 2.70627 12.6145 3.1665 12.6145H14.8332Z" fill="#2B2A29"/>
</svg>
