<svg width="12" height="17" viewBox="0 0 12 17" fill="none" xmlns="http://www.w3.org/2000/svg">
<path fill-rule="evenodd" clip-rule="evenodd" d="M11.8332 14.4478V2.78117C11.8332 1.40045 10.7139 0.281166 9.33317 0.281166H2.6665C1.28579 0.281166 0.166504 1.40045 0.166504 2.78117V14.4478C0.166504 15.8285 1.28579 16.9478 2.6665 16.9478H9.33317C10.7139 16.9478 11.8332 15.8285 11.8332 14.4478ZM6.5915 14.2062C6.82796 13.9665 6.897 13.6082 6.7665 13.2978C6.72603 13.191 6.66676 13.0922 6.5915 13.0062C6.5519 12.9703 6.51016 12.9369 6.4665 12.9062C6.42005 12.8746 6.36961 12.8494 6.3165 12.8312L6.1665 12.7812C5.88911 12.728 5.60366 12.819 5.40817 13.0228C5.3323 13.1021 5.27283 13.1955 5.23317 13.2978C5.10926 13.6074 5.1818 13.961 5.41757 14.1968C5.65334 14.4325 6.00695 14.5051 6.3165 14.3812C6.41749 14.339 6.5105 14.2798 6.5915 14.2062ZM10.1665 2.78117C10.1665 2.32093 9.79341 1.94783 9.33317 1.94783H2.6665C2.20627 1.94783 1.83317 2.32093 1.83317 2.78117V14.4478C1.83317 14.9081 2.20627 15.2812 2.6665 15.2812H9.33317C9.79341 15.2812 10.1665 14.9081 10.1665 14.4478V2.78117ZM5.1665 2.78117H6.93317H6.94984C7.41007 2.78117 7.78317 3.15426 7.78317 3.6145C7.78317 4.07474 7.41007 4.44783 6.94984 4.44783H5.1665C4.70627 4.44783 4.33317 4.07474 4.33317 3.6145C4.33317 3.15426 4.70627 2.78117 5.1665 2.78117Z" fill="#2B2A29"/>
</svg>
