<svg width="66" height="66" viewBox="0 0 66 66" fill="none" xmlns="http://www.w3.org/2000/svg">
<circle cx="32.6823" cy="33.2968" r="32.6823" fill="#2B2A29"/>
<g clip-path="url(#clip0_419_1768)">
<path d="M13.7193 32.6535L22.1536 35.7526L25.4182 46.0884C25.6271 46.7504 26.4494 46.9951 26.9952 46.5558L31.6966 42.7826C32.1894 42.3873 32.8914 42.3676 33.4064 42.7357L41.8861 48.7965C42.4699 49.2143 43.2971 48.8993 43.4435 48.2048L49.6554 18.7888C49.8152 18.0301 49.058 17.3972 48.3242 17.6766L13.7094 30.8225C12.8552 31.1469 12.8626 32.3375 13.7193 32.6535ZM24.8921 34.1029L41.376 24.1081C41.6722 23.929 41.977 24.3234 41.7226 24.5557L28.1187 37.0048C27.6405 37.443 27.332 38.0294 27.2447 38.6659L26.7813 42.0468C26.7199 42.4982 26.0758 42.543 25.9492 42.1061L24.167 35.941C23.9629 35.2379 24.2603 34.4868 24.8921 34.1029Z" fill="white"/>
</g>
<defs>
<clipPath id="clip0_419_1768">
<rect width="36.6042" height="36.6042" fill="white" transform="translate(13.0728 14.9947)"/>
</clipPath>
</defs>
</svg>
