<svg width="14" height="8" viewBox="0 0 14 8" fill="none" xmlns="http://www.w3.org/2000/svg">
<path d="M13.9516 0.41154C13.9034 0.289723 13.8218 0.185606 13.7172 0.112352C13.6125 0.039099 13.4895 7.78306e-08 13.3636 0H0.636366C0.510504 -5.19257e-07 0.387468 0.0390993 0.282817 0.112355C0.178167 0.18561 0.0966021 0.289732 0.048438 0.411551C0.00027378 0.533371 -0.0123267 0.667417 0.0122301 0.796739C0.0367869 0.926061 0.0973982 1.04485 0.186399 1.13808L6.55003 7.80473C6.60912 7.86664 6.67927 7.91575 6.75648 7.94925C6.83368 7.98276 6.91643 8 7 8C7.08357 8 7.16632 7.98276 7.24352 7.94925C7.32073 7.91575 7.39088 7.86664 7.44997 7.80473L13.8136 1.13808C13.9026 1.04485 13.9632 0.926057 13.9878 0.796733C14.0123 0.667409 13.9997 0.533361 13.9516 0.41154Z" fill="white"/>
</svg>
