<svg width="99" height="82" viewBox="0 0 99 82" fill="none" xmlns="http://www.w3.org/2000/svg">
<g clip-path="url(#clip0_419_1914)">
<path d="M36.9939 27.6387C38.4638 29.1039 39.973 30.5355 41.6373 31.7879C41.8782 31.969 42.1304 32.2844 42.4386 32.1369C42.8065 31.9596 42.6552 31.5359 42.6739 31.2056C42.6795 31.1141 42.6739 31.0189 42.659 30.9275C41.9604 27.0452 40.4512 23.5455 37.6289 20.7216C34.321 17.4123 30.0418 15.8724 25.7571 14.3606C25.4078 14.2374 25.1724 14.2878 25.1687 14.7582C25.1556 18.1626 25.0268 21.5839 25.9401 24.9062C27.3541 30.054 31.7995 34.653 38.1463 35.0319C39.14 35.0916 40.1355 35.0822 41.0414 34.5988C41.2749 34.4738 41.8147 34.3226 41.2637 33.8989C38.4115 31.7095 36.1384 28.9565 33.8503 26.2239C32.6867 24.8353 31.5622 23.4037 30.7628 21.7612C30.8543 21.6697 30.9459 21.5783 31.0374 21.4868C33.0191 23.5399 34.971 25.6248 36.9939 27.6387Z" fill="#44F100"/>
<path d="M74.9011 25.205C76.1544 21.6774 75.9414 17.9575 75.891 14.2786C75.8835 13.7056 75.6687 13.7 75.2018 13.8848C73.6589 14.4933 72.0806 15.0159 70.549 15.6486C65.2538 17.8324 61.2697 21.3377 59.3552 26.8904C58.8173 28.4489 58.298 30.0075 58.6174 31.9038C62.9246 28.6711 66.3483 24.7328 70.3305 21.0241C70.1082 21.8565 69.7664 22.3288 69.4339 22.7954C66.7069 26.6123 63.6643 30.1493 60.0668 33.1805C59.5252 33.6359 59.5849 33.8412 60.1882 34.1118C60.9447 34.4515 61.7479 34.5617 62.5398 34.5243C68.4085 34.2406 72.9305 30.7596 74.9011 25.2087V25.205Z" fill="#44F100"/>
<path d="M35.8734 60.558C36.0527 60.181 36.0808 59.9495 35.5316 59.8973C32.6066 59.6192 29.7918 58.8129 26.9845 58.0028C25.5463 57.5866 24.0744 57.2282 22.7296 56.5133C26.7379 57.0509 30.7052 57.8273 34.721 58.2977C35.0236 58.3332 35.4065 58.5049 35.5652 58.1745C35.7091 57.8777 35.3953 57.6071 35.1917 57.3925C31.4448 53.4131 26.9695 51.0091 21.3698 51.2088C18.7138 51.304 16.1287 51.9125 13.5698 52.6273C12.8283 52.8345 13.0281 53.107 13.3307 53.5009C14.1787 54.6021 14.9987 55.7294 15.884 56.8008C18.1478 59.5408 20.6115 61.9989 24.1155 63.1953C27.7989 64.4552 31.2581 64.2238 34.5361 62.0699C35.1132 61.691 35.5709 61.1907 35.8734 60.558Z" fill="#44F100"/>
<path d="M67.1089 66.6164C64.7797 66.5809 62.4655 66.7489 60.1811 67.195C54.262 68.3504 50.3191 72.0087 47.6238 77.2068C47.4987 77.4476 47.1979 77.7854 47.4613 78.0411C47.7153 78.2875 48.0441 77.9926 48.2981 77.8787C50.9093 76.7066 53.5112 75.5083 56.1149 74.3194C57.1347 73.8527 58.1564 73.3899 59.1781 72.9251C55.534 75.5998 51.8096 78.1027 47.5136 79.8199C48.3653 81.2813 49.7849 81.6677 51.2137 81.8711C55.7096 82.5113 59.3294 80.7307 62.2955 77.5166C64.9684 74.6199 66.2403 70.941 67.6804 67.3667C67.9662 66.6556 67.6916 66.6257 67.1089 66.6183V66.6164Z" fill="#44F100"/>
<path d="M90.9052 51.2068C89.9844 50.9585 89.0523 50.7532 88.1259 50.5236C85.4586 49.8629 82.7447 49.5904 80.0233 49.9264C76.7509 50.3295 73.9473 51.8712 71.3846 53.8814C70.5273 54.5534 69.7129 55.2664 69.0667 56.1511C68.9266 56.3415 68.6558 56.5393 68.7884 56.7913C68.9453 57.0899 69.2945 56.9574 69.5411 56.9275C70.5833 56.8025 71.6219 56.6401 72.6604 56.4814C75.2809 56.0783 77.8996 55.6677 80.5183 55.2589L80.7163 55.4568C79.4704 55.8767 78.2414 56.3601 76.9732 56.6998C74.3003 57.4184 71.6517 58.2826 68.8556 58.43C68.1664 58.4655 68.3905 58.8481 68.5568 59.1785C69.104 60.2555 70.0529 60.905 71.0989 61.394C75.492 63.4509 79.6572 62.6632 83.546 60.1304C86.768 58.0325 88.9459 54.8875 91.2246 51.8731C91.5795 51.4028 91.2115 51.2889 90.9071 51.2068H90.9052Z" fill="#44F100"/>
<path d="M35.9912 8.00153C36.8709 11.8857 38.8863 14.8552 42.8143 16.2066C44.1423 16.6639 45.5077 16.9177 46.8843 16.369C47.2952 16.2047 47.7734 16.0405 47.1103 15.5216C45.3938 14.1777 43.9406 12.5613 42.5024 10.9356C41.843 10.1909 41.1164 9.49658 40.7485 8.49428C41.1538 8.84891 41.5554 9.20541 41.9626 9.55817C43.765 11.1223 45.5656 12.6845 47.3699 14.2449C47.5511 14.4017 47.7435 14.6742 47.9956 14.5361C48.2422 14.3998 48.117 14.0788 48.0909 13.8529C47.8406 11.6262 46.9254 9.64216 45.6814 7.82421C43.2981 4.33577 39.6054 2.93404 35.7764 1.78056C35.2029 1.60698 35.3281 2.012 35.343 2.30131C35.4345 4.21631 35.569 6.12945 35.993 8.0034L35.9912 8.00153Z" fill="#44F100"/>
<path d="M27.961 45.8891C28.1795 46.0776 28.413 46.4565 28.7361 46.2624C29.0686 46.0627 28.9304 45.6259 28.865 45.3217C28.3308 42.8467 27.3595 40.5547 25.7028 38.6192C23.2877 35.797 19.9275 34.6081 16.5299 33.5293C15.8706 33.3202 16.0406 33.9082 16.0723 34.2255C16.2647 36.1591 16.3282 38.1152 16.7933 40.0116C17.688 43.6605 19.6212 46.4901 23.2615 47.8881C24.6998 48.4406 26.1884 48.6552 27.6939 48.1438C28.1291 47.9963 28.4373 47.7108 27.8825 47.3057C26.4686 46.2736 25.318 44.9633 24.1375 43.696C23.1812 42.6713 22.1913 41.6597 21.3433 40.3475C21.8924 40.4987 22.1315 40.8253 22.4192 41.0754C24.2683 42.6788 26.1081 44.2933 27.961 45.891V45.8891Z" fill="#44F100"/>
<path d="M78.8477 38.9067C76.9519 41.0774 75.1252 43.3172 72.8483 45.1146C72.3701 45.4916 72.2898 45.7156 72.8782 45.9825C73.0425 46.0572 73.22 46.1187 73.3974 46.1523C76.0703 46.6488 78.3359 45.7268 80.3009 44.0246C84.1897 40.6537 84.2849 35.98 84.6025 31.269C80.3177 32.5532 76.2683 34.0202 73.8438 38.0294C72.6951 39.9295 71.7481 41.9304 71.778 44.4613C74.3799 42.5015 76.4868 40.3551 78.8141 38.4681C78.829 38.4867 78.8496 38.4867 78.8701 38.4774C78.9467 38.4904 79.0233 38.5035 79.0999 38.5166C79.0177 38.6472 78.9505 38.7928 78.8515 38.9067H78.8477Z" fill="#44F100"/>
<path d="M59.6474 8.28897C59.6269 8.49615 59.6437 8.56895 59.6138 8.60628C57.5928 11.0364 55.5532 13.4517 53.097 15.4637C52.4899 15.9602 52.6823 16.1655 53.2595 16.382C53.9058 16.6247 54.5707 16.7199 55.2562 16.6415C59.6213 16.1487 62.2586 13.5319 63.7062 9.60111C64.5766 7.23815 64.599 4.7016 64.8288 2.21545C64.8642 1.83656 64.7839 1.62005 64.3039 1.79363C63.497 2.08853 62.6602 2.29571 61.8533 2.58875C57.9384 4.01287 54.7239 6.24331 53.0895 10.2693C52.5292 11.6486 51.8978 13.0093 52.0491 14.8011C54.7668 12.6995 57.0717 10.4224 59.6456 8.28711L59.6474 8.28897Z" fill="#44F100"/>
<path d="M8.43302 31.7676C6.33173 29.3729 3.51692 28.0888 0.647955 26.8998C-0.0431377 26.6142 0.00729343 27.0529 0.0110291 27.4747C0.0315751 29.4252 -0.102908 31.3812 0.205282 33.3205C0.812323 37.1449 2.57928 40.1705 6.229 41.8372C7.51032 42.4215 8.87196 42.7238 10.2822 42.386C10.6557 42.2964 11.2983 42.1639 10.5904 41.5218C9.00084 40.0772 7.72886 38.3488 6.46061 36.6298C5.77699 35.704 4.94581 34.8697 4.59652 33.6639C4.73101 33.7853 4.8767 33.8954 4.99624 34.0279C6.93877 36.2023 8.97656 38.2853 11.0536 40.3329C11.203 40.4803 11.358 40.7304 11.5766 40.6632C11.8941 40.5643 11.7559 40.2339 11.7428 40.0174C11.5355 36.9097 10.4988 34.1194 8.43302 31.7657V31.7676Z" fill="#44F100"/>
<path d="M2.27096 15.0775C3.66996 16.4494 5.1885 17.6701 6.95545 18.5343C8.83448 19.4526 10.8125 19.8333 12.8858 19.335C14.6976 18.9001 16.3338 18.1516 17.4096 16.5297C17.5908 16.2553 17.8448 15.8951 17.6618 15.5871C17.4563 15.2399 17.051 15.4751 16.7297 15.4994C14.1353 15.6879 11.5447 15.7289 8.96522 15.3127C11.4569 15.0477 13.9504 14.7864 16.4421 14.5101C16.6364 14.4896 16.9333 14.6146 17.0081 14.3347C17.0846 14.0416 16.8063 13.911 16.6027 13.7841C14.4043 12.4141 12.0191 11.6096 9.41724 11.7589C6.80229 11.9083 4.49927 13.0505 2.26723 14.3347C1.76292 14.6258 2.00947 14.8218 2.27096 15.0775Z" fill="#44F100"/>
<path d="M45.0836 75.0064C42.8516 74.2635 40.8138 73.1101 38.7331 72.0443C39.1216 71.5291 39.4839 72.2067 39.865 72.0704C41.4732 72.6752 43.0776 73.2911 44.6951 73.8716C44.8913 73.9425 45.1546 74.2019 45.3732 73.935C45.6122 73.642 45.3171 73.405 45.1845 73.1978C43.9891 71.3388 42.4369 69.8531 40.4384 68.8787C38.0065 67.6935 35.4027 67.7831 32.7971 67.9287C32.1677 67.9642 32.4105 68.3991 32.5095 68.6585C33.0848 70.1517 33.6787 71.643 34.6201 72.9551C36.3516 75.3648 38.6994 76.6918 41.6786 76.7833C42.8927 76.8206 44.0937 76.6153 45.0893 75.8277C45.3732 75.6037 45.8252 75.2528 45.0818 75.0045L45.0836 75.0064Z" fill="#44F100"/>
<path d="M83.297 11.841C85.8055 12.3263 88.3308 12.2404 91.0466 12.7593C88.4428 12.9534 86.1025 13.1662 83.7509 12.8619C83.4315 12.8209 82.9757 12.6268 82.7964 12.9291C82.5779 13.2968 82.8637 13.6888 83.1214 14.0136C84.4214 15.6486 86.2126 16.3952 88.2056 16.5184C91.8609 16.748 94.5114 14.7284 96.9507 12.3356C97.2944 11.9996 97.018 11.8447 96.7808 11.7159C95.9926 11.2904 95.2025 10.8667 94.3918 10.4859C91.0223 8.90315 87.6994 9.11779 84.4364 10.8107C83.9956 11.0384 83.4744 11.225 83.2989 11.841H83.297Z" fill="#44F100"/>
<path d="M98.8608 31.1087C98.8272 30.7764 98.6759 30.6533 98.2892 30.7932C93.8737 32.4059 90.6966 35.1123 89.9961 40.0454C89.9494 40.3795 89.7384 40.792 90.0895 40.9861C90.5061 41.2157 90.7321 40.7472 90.9693 40.5027C92.1535 39.2876 93.319 38.0538 94.4901 36.8276L94.7068 37.0441C93.7168 38.5727 92.6073 40.0062 91.397 41.3668C91.1075 41.6935 90.4239 41.9641 90.6256 42.3803C90.8777 42.8973 91.5894 42.819 92.1497 42.791C92.3328 42.7816 92.5158 42.735 92.6933 42.6902C95.1849 42.0761 97.0191 40.6576 98.0875 38.2983C99.1335 35.9858 99.0999 33.5575 98.8589 31.1087H98.8608Z" fill="#44F100"/>
<path d="M90.5982 27.2506C90.5664 27.4802 90.473 27.8218 90.6897 27.945C91.0016 28.1223 91.1623 27.7546 91.3546 27.581C92.7611 26.3174 94.162 25.0463 94.8867 24.3912C94.3021 25.2703 93.1235 26.8493 91.7898 28.3108C91.5713 28.5497 91.11 28.7252 91.2332 29.0891C91.392 29.5576 91.9187 29.4269 92.2923 29.4363C94.4982 29.4941 97.0328 27.6687 98.0452 25.3972C98.9772 23.3105 98.8465 21.1193 98.7848 18.928C98.7718 18.4446 98.5756 18.3867 98.1255 18.564C97.0347 18.9915 95.9756 19.4861 94.9819 20.1002C92.3278 21.7445 91.0203 24.2344 90.5963 27.2488L90.5982 27.2506Z" fill="#44F100"/>
<path d="M79.5114 23.9579C79.7318 24.2546 80.1353 23.9803 80.4416 23.8795C82.0423 23.3625 83.6412 22.8324 85.24 22.306C83.6131 23.4016 81.8555 24.2061 80.0456 24.8986C79.8047 24.9919 79.4255 24.8911 79.4124 25.2737C79.4012 25.578 79.6907 25.7515 79.9261 25.8859C80.2698 26.0838 80.6284 26.2928 81.0094 26.3824C83.0341 26.8621 84.9318 26.5448 86.6614 25.3708C88.5012 24.1221 89.5341 22.265 90.4101 20.3014C90.8939 19.2151 90.8678 19.1927 89.7228 19.1461C89.3828 19.133 89.0448 19.0807 88.7048 19.0584C85.0364 18.8232 82.0629 20.1148 79.8607 23.0843C79.6702 23.3419 79.2929 23.6555 79.5133 23.956L79.5114 23.9579Z" fill="#44F100"/>
<path d="M18.2752 29.3819C19.1381 29.3054 19.9693 29.0795 20.6249 28.4374C20.9462 28.122 20.9051 27.9634 20.4774 27.8084C19.6107 27.4949 18.7422 27.1776 17.9054 26.7912C16.723 26.2443 15.4847 25.7964 14.4518 24.9247C14.5732 24.9247 14.7133 24.8837 14.8123 24.9303C16.3065 25.6489 17.9016 26.0931 19.4669 26.612C19.8741 26.7464 20.4026 27.1776 20.6978 26.7539C20.9256 26.4272 20.4213 25.9942 20.1673 25.662C17.5636 22.2426 13.9512 21.5707 9.95967 21.9664C9.49645 22.013 9.44042 22.2725 9.61039 22.6887C10.1222 23.9504 10.7255 25.1636 11.5436 26.2555C13.2227 28.4953 15.4361 29.632 18.2715 29.38L18.2752 29.3819Z" fill="#44F100"/>
<path d="M70.3064 5.43127C70.3307 5.70565 70.6221 5.8755 70.8761 6.00055C72.1742 6.63889 73.4985 6.57542 74.8303 6.1256C77.505 5.22223 78.7004 3.04405 79.5858 0.602694C79.7333 0.193935 79.455 0.182736 79.1562 0.124875C78.0093 -0.0935028 76.8625 0.00355402 75.7362 0.186469C73.5041 0.548566 71.8717 1.86257 70.5735 3.63945C70.439 3.82237 70.213 4.05195 70.4073 4.29459C70.6165 4.55403 70.8855 4.30205 71.0872 4.23673C72.1276 3.89516 73.1511 3.50693 74.1803 3.1355C74.2998 3.1915 74.4212 3.24563 74.5408 3.30162C73.3454 3.89703 72.1985 4.59509 70.9209 5.03185C70.7099 5.10464 70.2709 5.04865 70.3046 5.43314L70.3064 5.43127Z" fill="#44F100"/>
<path d="M22.2402 3.9511C23.5197 5.5656 25.2082 6.45591 27.2814 6.45218C28.2863 6.45031 29.3155 6.30846 29.9674 5.2931C28.3947 4.77795 26.9695 4.06869 25.5761 3.29036C25.634 3.2325 25.6919 3.17651 25.748 3.11865C27.1526 3.49754 28.4675 4.17881 29.9991 4.45318C29.7283 3.90444 29.463 3.49941 29.153 3.10932C27.0255 0.427186 24.1659 -0.226082 20.9383 0.0762877C20.378 0.128549 20.434 0.408521 20.576 0.761285C21.0261 1.87931 21.4856 3.00106 22.2402 3.9511Z" fill="#44F100"/>
<path d="M15.7174 7.32934C16.9595 7.58131 18.11 7.39466 19.1224 6.59581C19.2662 6.48196 19.4138 6.33824 19.3652 6.12732C19.3073 5.87348 19.0813 5.95561 18.9113 5.93134C17.7365 5.77083 16.5934 5.48152 15.4914 4.99251C16.6756 5.12689 17.8597 5.26128 19.1579 5.40873C19.0589 5.11943 19.0514 5.0149 18.9973 4.94958C17.5161 3.20815 13.9168 2.57542 11.8883 3.65237C11.5241 3.84462 11.6287 3.97527 11.7707 4.19365C12.7345 5.67937 13.8682 6.95231 15.7155 7.32747L15.7174 7.32934Z" fill="#44F100"/>
<path d="M41.0977 53.2412C39.6558 51.119 35.6923 50.2549 33.7721 51.5483C33.406 51.7947 33.5891 51.9758 33.7441 52.2184C34.2148 52.9519 34.749 53.6332 35.4196 54.1931C36.9007 55.4325 39.1981 55.6826 40.614 54.7699C40.8717 54.6038 41.2285 54.4208 41.1855 54.1017C41.1332 53.7172 40.7055 53.831 40.4234 53.775C39.37 53.5623 38.3109 53.3719 37.3247 52.9183C38.5631 52.9258 39.7585 53.3271 41.0996 53.2412H41.0977Z" fill="#44F100"/>
<path d="M81.013 6.5903C81.6387 7.14651 82.4008 7.38916 83.2226 7.41715C85.6676 7.50115 87.1525 6.06209 88.3628 4.17321C88.6206 3.77005 88.361 3.68606 88.1013 3.60021C85.7255 2.82002 83.4785 2.90214 81.4893 4.6249C81.3043 4.78542 81.0223 4.9366 81.1381 5.21284C81.2576 5.50215 81.5789 5.36216 81.7974 5.3379C82.7332 5.23711 83.6634 5.10272 84.5973 4.97953C83.5177 5.49655 82.3914 5.77092 81.2352 5.93144C81.0653 5.9557 80.8038 5.86798 80.7832 6.11435C80.7701 6.2674 80.8878 6.47832 81.013 6.58844V6.5903Z" fill="#44F100"/>
<path d="M58.883 53.9655C58.7765 54.3575 59.2136 54.574 59.5199 54.7681C59.7254 54.8987 59.9533 55.0126 60.1867 55.0779C63.0296 55.873 65.0673 54.3836 66.4869 52.0766C66.7596 51.6343 66.4103 51.5409 66.1152 51.4607C65.1645 51.2012 64.21 50.9138 63.2126 50.9978C61.5092 51.1415 60.1195 51.903 58.7803 53.3328C60.2857 53.1666 61.5073 53.0323 62.8428 52.8867C61.765 53.3999 60.7359 53.5773 59.7142 53.7826C59.4247 53.8404 58.9577 53.6855 58.883 53.9674V53.9655Z" fill="#44F100"/>
<path d="M47.2504 21.3615C48.1077 21.2943 48.7502 21.2421 49.3928 21.1917C49.6244 21.3055 49.9382 21.0666 50.1287 21.3615C49.1555 21.5892 48.1824 21.8188 47.1943 22.0503C47.7883 23.0246 49.2135 23.5733 50.4331 23.3848C52.4336 23.0768 53.7373 21.8431 54.7721 20.2211C55.0541 19.7806 54.8468 19.6462 54.4527 19.5193C53.2554 19.1348 52.0152 18.9612 50.7936 19.1852C49.432 19.4335 48.2384 20.0793 47.2504 21.3615Z" fill="#44F100"/>
<path d="M50.6609 68.6398C49.544 67.5087 48.2645 66.5941 47.48 65.2185C48.6885 66.0416 49.6299 67.182 50.9019 67.9921C50.9299 65.5358 47.8816 62.4094 45.6645 62.5308C45.446 62.542 45.3563 62.6129 45.2984 62.8387C44.697 65.1998 46.5611 68.3187 48.9425 68.8731C49.5216 69.0075 50.1398 69.1437 50.6591 68.6379L50.6609 68.6398Z" fill="#44F100"/>
<path d="M66.7859 38.1715H54.9775V26.3716H45.6384V38.1715H33.8301V47.5039H45.6384V59.3037H54.9775V47.5039H66.7859V38.1715Z" fill="#FF0000"/>
</g>
<defs>
<clipPath id="clip0_419_1914">
<rect width="99" height="82" fill="white"/>
</clipPath>
</defs>
</svg>
